<svg xmlns="http://www.w3.org/2000/svg" version="1.1" xmlns:xlink="http://www.w3.org/1999/xlink" xmlns:svgjs="http://svgjs.dev/svgjs" width="128" height="128" viewBox="0 0 128 128"><g transform="matrix(0.8046875,0,0,0.8046875,12.333870967741937,12.333870967741937)"><svg viewBox="0 0 155 155" data-background-color="#ffffff" preserveAspectRatio="xMidYMid meet" height="128" width="128" xmlns="http://www.w3.org/2000/svg" xmlns:xlink="http://www.w3.org/1999/xlink"><g id="tight-bounds" transform="matrix(1,0,0,1,0.25,0.25)"><svg viewBox="0 0 154.5 154.5" height="154.5" width="154.5"><g><svg></svg></g><g><svg viewBox="0 0 154.5 154.5" height="154.5" width="154.5"><g transform="matrix(1,0,0,1,45.86687228989039,43.83165)"><svg viewBox="0 0 62.766255420219224 66.8367" height="66.8367" width="62.766255420219224"><g><svg viewBox="0 0 62.766255420219224 66.8367" height="66.8367" width="62.766255420219224"><g><svg viewBox="0 0 62.766255420219224 66.8367" height="66.8367" width="62.766255420219224"><g id="textblocktransform"><svg viewBox="0 0 62.766255420219224 66.8367" height="66.8367" width="62.766255420219224" id="textblock"><g><svg viewBox="0 0 62.766255420219224 66.8367" height="66.8367" width="62.766255420219224"><g transform="matrix(1,0,0,1,0,0)"><svg width="62.766255420219224" viewBox="-1.75 -37.75 39.55 42.05" height="66.8367" data-palette-color="#636365"><path d="M21.95-33.75L21.95-33.75 32.95-33.3 33.25-24.2 31.45-24.2 29.75-30.75Q26.3-31.9 23.1-31.9L23.1-31.9Q17.15-31.9 13.45-27.98 9.75-24.05 9.75-16.38 9.75-8.7 13.35-5.1 16.95-1.5 22.43-1.5 27.9-1.5 30.35-2.7L30.35-2.7 32.2-8.4 33.8-8.4 33.5-1.05Q27.25 0.3 22.58 0.3 17.9 0.3 14.6-0.48 11.3-1.25 8.4-3 5.5-4.75 3.88-8.05 2.25-11.35 2.25-15.95 2.25-20.55 3.93-24.08 5.6-27.6 8.45-29.65L8.45-29.65Q14.15-33.75 21.95-33.75Z" opacity="1" transform="matrix(1,0,0,1,0,0)" fill="#ffffff" class="undefined-text-0" data-fill-palette-color="primary" id="text-0"></path></svg></g></svg></g></svg></g></svg></g></svg></g></svg></g><g mask="url(&quot;#aaab1fd9-1c5e-42ec-bf47-232ceebd96ce&quot;)"><g transform="matrix(1.9509179528155314, 0, 0, 1.9509179528155314, 1, 1.1634188784182982)"><svg xmlns="http://www.w3.org/2000/svg" xmlns:xlink="http://www.w3.org/1999/xlink" version="1.1" x="0" y="0" viewBox="0.0026691484054239822 0 78.16833085159456 78.00080060955393" enable-background="new 0 0 78.171 78.418" xml:space="preserve" width="78.16833085159456" height="78.00080060955393" class="icon-none" data-fill-palette-color="accent" id="none"><g fill="#636365" data-fill-palette-color="accent"><path fill="#ffffff" d="M50.268 0.099L49.494 0 29.904 19.589l11.118 11.117c-4.494 5.556-8.579 9.287-12.026 11.354C20.473 47.175 15.6 44.202 15.6 44.202L4.099 55.703l3.076 3.075 1.171-1.172c-0.264 3.266 0.847 6.622 3.345 9.121 2.499 2.498 5.855 3.608 9.121 3.345l-1.172 1.172 3.075 3.075 11.501-11.501c0 0-2.973-4.873 2.141-13.396 2.068-3.447 5.799-7.532 11.354-12.025l10.87 10.869 19.59-19.589-0.1-0.775C76.704 17.316 60.854 1.467 50.268 0.099zM73.478 28.877c-1.782-4.764-5.162-9.825-9.551-14.214-4.632-4.63-9.89-8.073-14.829-9.774l1.514-1.514C59.52 5.17 73 18.652 74.796 27.559L73.478 28.877zM59.538 42.816c-0.196-4.112-2.175-10.724-7.86-16.384-5.606-5.631-12.147-7.626-16.267-7.855L47.069 6.918c4.861 1.386 10.379 4.86 15.061 9.542 4.491 4.49 7.851 9.682 9.354 14.411L59.538 42.816zM42.932 28.123c0.021 0.018 0.044 0.036 0.066 0.054-0.002 0.003-0.005 0.005-0.007 0.008L42.932 28.123zM14.925 63.492c-2.734-2.732-2.734-7.165 0-9.898 1.129-1.13 2.55-1.784 4.019-1.98 2.088-0.278 4.276 0.377 5.88 1.98 1.604 1.604 2.259 3.793 1.981 5.88-0.196 1.47-0.852 2.89-1.981 4.019C22.091 66.227 17.659 66.227 14.925 63.492zM45.005 35.791L32.551 48.243c-0.573 0.574-1.503 0.574-2.076 0-0.573-0.572-0.573-1.501 0-2.075l12.453-12.453c0.203-0.203 0.451-0.331 0.712-0.39 0.475-0.107 0.994 0.019 1.365 0.39 0.37 0.37 0.497 0.889 0.388 1.364C45.334 35.34 45.207 35.587 45.005 35.791z" data-fill-palette-color="accent"></path><rect x="16.24" y="73.041" transform="matrix(-0.7071 -0.7071 0.7071 -0.7071 -20.932 141.5494)" fill="#ffffff" width="5.219" height="4.138" data-fill-palette-color="accent"></rect><rect x="0.699" y="57.499" transform="matrix(-0.7071 -0.7072 0.7072 -0.7071 -36.476 104.0264)" fill="#ffffff" width="5.219" height="4.139" data-fill-palette-color="accent"></rect><path fill="#ffffff" d="M55.73 15.774l-0.749-0.75c-0.496-0.496-1.301-0.496-1.797 0l-2.781 2.783c-0.497 0.496-0.497 1.3 0 1.797l0.645 0.646c-0.445 1.922 0.075 4.024 1.573 5.522 2.311 2.31 6.056 2.311 8.366 0 2.311-2.31 2.311-6.056 0-8.366C59.557 15.977 57.579 15.434 55.73 15.774zM58.627 23.414c-1.007 1.007-2.64 1.007-3.648 0-1.006-1.008-1.006-2.641 0-3.648 1.009-1.008 2.642-1.008 3.648 0C59.634 20.773 59.635 22.406 58.627 23.414z" data-fill-palette-color="accent"></path></g></svg></g></g><mask id="aaab1fd9-1c5e-42ec-bf47-232ceebd96ce"><rect width="250" height="250" fill="white"></rect><g transform="matrix(1,0,0,1,45.86687228989039,43.83165)"><svg viewBox="0 0 62.766255420219224 66.8367" height="66.8367" width="62.766255420219224"><g><svg viewBox="0 0 62.766255420219224 66.8367" height="66.8367" width="62.766255420219224"><g><svg viewBox="0 0 62.766255420219224 66.8367" height="66.8367" width="62.766255420219224"><g id="SvgjsG2338"><svg viewBox="0 0 62.766255420219224 66.8367" height="66.8367" width="62.766255420219224" id="SvgjsSvg2337"><g><svg viewBox="0 0 62.766255420219224 66.8367" height="66.8367" width="62.766255420219224"><g transform="matrix(1,0,0,1,0,0)"><svg width="62.766255420219224" viewBox="-1.75 -37.75 39.55 42.05" height="66.8367" data-palette-color="#636365"><path d="M21.95-33.75L21.95-33.75 32.95-33.3 33.25-24.2 31.45-24.2 29.75-30.75Q26.3-31.9 23.1-31.9L23.1-31.9Q17.15-31.9 13.45-27.98 9.75-24.05 9.75-16.38 9.75-8.7 13.35-5.1 16.95-1.5 22.43-1.5 27.9-1.5 30.35-2.7L30.35-2.7 32.2-8.4 33.8-8.4 33.5-1.05Q27.25 0.3 22.58 0.3 17.9 0.3 14.6-0.48 11.3-1.25 8.4-3 5.5-4.75 3.88-8.05 2.25-11.35 2.25-15.95 2.25-20.55 3.93-24.08 5.6-27.6 8.45-29.65L8.45-29.65Q14.15-33.75 21.95-33.75Z" opacity="1" transform="matrix(1,0,0,1,0,0)" fill="#ffffff" class="undefined-text-0" data-fill-palette-color="primary" id="SvgjsPath2336" stroke-width="7" stroke="black" stroke-linejoin="round"></path></svg></g></svg></g></svg></g></svg></g></svg></g></svg></g></mask></svg></g><defs></defs></svg><rect width="154.5" height="154.5" fill="none" stroke="none" visibility="hidden"></rect></g></svg></g></svg>