<svg xmlns="http://www.w3.org/2000/svg" version="1.1" xmlns:xlink="http://www.w3.org/1999/xlink" xmlns:svgjs="http://svgjs.dev/svgjs" width="2000" height="1252" viewBox="0 0 2000 1252"><g transform="matrix(1,0,0,1,-1.2121212121212466,-1.2267062861872091)"><svg viewBox="0 0 396 248" data-background-color="#ffffff" preserveAspectRatio="xMidYMid meet" height="1252" width="2000" xmlns="http://www.w3.org/2000/svg" xmlns:xlink="http://www.w3.org/1999/xlink"><g id="tight-bounds" transform="matrix(1,0,0,1,0.2400000000000091,0.24298974358978853)"><svg viewBox="0 0 395.52 247.2" height="247.2" width="395.52"><g><svg></svg></g><g><svg viewBox="0 0 395.52 247.2" height="247.2" width="395.52"><g transform="matrix(1,0,0,1,39.55199999999999,88.67391736896197)"><svg viewBox="0 0 316.416 69.85216526207606" height="69.85216526207606" width="316.416"><g><svg viewBox="0 0 316.416 69.85216526207606" height="69.85216526207606" width="316.416"><g><svg viewBox="0 0 316.416 69.85216526207606" height="69.85216526207606" width="316.416"><g><svg viewBox="0 0 316.416 69.85216526207606" height="69.85216526207606" width="316.416"><g id="textblocktransform"><svg viewBox="0 0 316.416 69.85216526207606" height="69.85216526207606" width="316.416" id="textblock"><g><svg viewBox="0 0 316.416 69.85216526207606" height="69.85216526207606" width="316.416"><g transform="matrix(1,0,0,1,0,0)"><svg width="316.416" viewBox="-1.75 -38.2 244.23 54.7" height="69.85216526207606" data-palette-color="#636365"><path d="M21.95-33.75L21.95-33.75 32.95-33.3 33.25-24.2 31.45-24.2 29.75-30.75Q26.3-31.9 23.1-31.9L23.1-31.9Q17.15-31.9 13.45-27.98 9.75-24.05 9.75-16.38 9.75-8.7 13.35-5.1 16.95-1.5 22.43-1.5 27.9-1.5 30.35-2.7L30.35-2.7 32.2-8.4 33.8-8.4 33.5-1.05Q27.25 0.3 22.58 0.3 17.9 0.3 14.6-0.48 11.3-1.25 8.4-3 5.5-4.75 3.88-8.05 2.25-11.35 2.25-15.95 2.25-20.55 3.93-24.08 5.6-27.6 8.45-29.65L8.45-29.65Q14.15-33.75 21.95-33.75ZM51.95-7.4L51.95-11.7Q46.15-11.7 44.65-8.65L44.65-8.65Q44-7.35 44-5.4L44-5.4Q44-2.05 46.3-1.5L46.3-1.5Q46.65-1.4 47.05-1.4L47.05-1.4Q48.65-1.4 50.25-3.08 51.85-4.75 51.95-7.4L51.95-7.4ZM43.95-16.6L43.95-16.6Q42.85-15.85 41.65-15.85 40.45-15.85 39.6-16.65 38.75-17.45 38.75-19.03 38.75-20.6 39.7-21.85 40.65-23.1 42.15-23.7L42.15-23.7Q45.1-24.95 47.75-24.95L47.75-24.95Q53.65-24.95 55.8-22.88 57.95-20.8 57.95-16.5L57.95-16.5 57.95-1.45 62.15-1.15 62.15-0.05 52.6 0.55 52.15-3.65Q49.8 0.6 44.05 0.6L44.05 0.6Q41.45 0.6 39.57-0.98 37.7-2.55 37.7-5.4L37.7-5.4Q37.75-9.2 41.5-11.13 45.25-13.05 51.95-13.05L51.95-13.05 51.95-17.35Q51.95-20.4 51.1-22.05 50.25-23.7 47.95-23.7 45.65-23.7 44.5-21.8L44.5-21.8Q43.75-20.55 43.75-19.15 43.75-17.75 43.95-16.6ZM72.85-18.5Q73.7-21.2 75.97-23.1 78.25-25 80.12-25 82-25 82.65-24.08 83.3-23.15 83.3-22.55L83.3-22.55Q83.3-20.5 81.8-19.6L81.8-19.6Q80.8-20.4 78.82-20.4 76.85-20.4 74.9-19.18 72.95-17.95 72.95-16.5L72.95-16.5 72.95-1.45 77.45-1.15 77.45 0 63.5 0 63.5-1.15 66.8-1.4 66.8-22.75 62.75-22.95 62.75-24.1 72.95-24.65 72.65-18.5 72.85-18.5ZM87.39-1.7L87.39-1.7Q85.29-3.05 85.29-5.15L85.29-5.15Q85.29-8.05 89.89-8.75L89.89-8.75Q90.69-4.1 93.29-2.3L93.29-2.3Q95.59-0.7 98.17-0.7 100.74-0.7 102.62-2.27 104.49-3.85 104.49-7.45L104.49-7.45Q104.49-10.15 102.57-11.73 100.64-13.3 97.69-14.5 94.74-15.7 93.69-16.18 92.64-16.65 91.02-17.6 89.39-18.55 88.59-19.4L88.59-19.4Q86.59-21.7 86.59-24.7L86.59-24.7Q86.59-29.4 90.09-31.8 93.59-34.2 99.84-34.2L99.84-34.2Q103.39-34.2 108.09-33.4L108.09-33.4 108.09-26 106.44-26 104.44-31.9Q101.94-32.7 99.37-32.7 96.79-32.7 94.89-31.08 92.99-29.45 92.99-26.25L92.99-26.25Q92.99-22.6 96.29-20.8L96.29-20.8Q97.94-19.95 100.19-19.1 102.44-18.25 103.44-17.82 104.44-17.4 106.09-16.48 107.74-15.55 108.54-14.65 109.34-13.75 109.99-12.28 110.64-10.8 110.64-9.05L110.64-9.05Q110.64-4.8 107.04-2.1 103.44 0.6 97.22 0.6 90.99 0.6 87.39-1.7ZM131.24-24.95L131.24-24.95Q135.64-24.95 138.62-22.08 141.59-19.2 141.59-12.98 141.59-6.75 138.12-3.08 134.64 0.6 128.14 0.6L128.14 0.6Q125.24 0.6 123.19-0.75L123.19-0.75 123.19 11.05 126.64 11.35 126.64 12.5 113.74 12.5 113.74 11.35 116.79 11.05 116.79-22.65 112.44-22.9 112.44-24.05 123.04-24.7 122.89-20.5Q125.64-24.95 131.24-24.95ZM123.19-17.25L123.19-17.25 123.19-2.55Q125.19-0.9 127.74-0.9 130.29-0.9 131.64-2.02 132.99-3.15 133.59-5.2L133.59-5.2Q134.64-8.55 134.64-13.9L134.64-13.9Q134.64-23.4 129.74-23.4L129.74-23.4Q127.14-23.4 125.17-21.3 123.19-19.2 123.19-17.25ZM159.59-7.4L159.59-11.7Q153.79-11.7 152.29-8.65L152.29-8.65Q151.64-7.35 151.64-5.4L151.64-5.4Q151.64-2.05 153.94-1.5L153.94-1.5Q154.29-1.4 154.69-1.4L154.69-1.4Q156.29-1.4 157.89-3.08 159.49-4.75 159.59-7.4L159.59-7.4ZM151.59-16.6L151.59-16.6Q150.49-15.85 149.29-15.85 148.09-15.85 147.24-16.65 146.39-17.45 146.39-19.03 146.39-20.6 147.34-21.85 148.29-23.1 149.79-23.7L149.79-23.7Q152.74-24.95 155.39-24.95L155.39-24.95Q161.29-24.95 163.44-22.88 165.59-20.8 165.59-16.5L165.59-16.5 165.59-1.45 169.79-1.15 169.79-0.05 160.24 0.55 159.79-3.65Q157.44 0.6 151.69 0.6L151.69 0.6Q149.09 0.6 147.21-0.98 145.34-2.55 145.34-5.4L145.34-5.4Q145.39-9.2 149.14-11.13 152.89-13.05 159.59-13.05L159.59-13.05 159.59-17.35Q159.59-20.4 158.74-22.05 157.89-23.7 155.59-23.7 153.29-23.7 152.14-21.8L152.14-21.8Q151.39-20.55 151.39-19.15 151.39-17.75 151.59-16.6ZM180.49-18.5Q181.34-21.2 183.61-23.1 185.89-25 187.76-25 189.64-25 190.29-24.08 190.94-23.15 190.94-22.55L190.94-22.55Q190.94-20.5 189.44-19.6L189.44-19.6Q188.44-20.4 186.46-20.4 184.49-20.4 182.54-19.18 180.59-17.95 180.59-16.5L180.59-16.5 180.59-1.45 185.09-1.15 185.09 0 171.14 0 171.14-1.15 174.44-1.4 174.44-22.75 170.39-22.95 170.39-24.1 180.59-24.65 180.29-18.5 180.49-18.5ZM209.53-17.45L209.53-17.45Q209.53-23.55 205.28-23.55L205.28-23.55Q200.83-23.55 199.88-15.75L199.88-15.75 209.43-15.75Q209.53-16.75 209.53-17.45ZM204.83 0.55L204.83 0.55Q199.48 0.55 196.16-2.95 192.83-6.45 192.83-12.2 192.83-17.95 196.31-21.45 199.78-24.95 205.13-24.95 210.48-24.95 213.13-22.68 215.78-20.4 215.78-16.35L215.78-16.35Q215.78-15.2 215.58-13.95L215.58-13.95 199.73-13.95 199.73-12.2Q199.73-6.6 201.13-3.73 202.53-0.85 205.36-0.85 208.18-0.85 210.51-2.02 212.83-3.2 214.13-5.35L214.13-5.35Q215.23-5 215.23-4.3L215.23-4.3Q215.23-3.05 212.88-1.4L212.88-1.4Q211.73-0.6 209.61-0.03 207.48 0.55 204.83 0.55ZM228.93-0.7L228.93-0.7Q230.68-0.7 231.83-1.83 232.98-2.95 232.98-5.5L232.98-5.5Q232.98-7.55 231.28-8.6L231.28-8.6Q229.98-9.4 227.96-10.18 225.93-10.95 224.86-11.5 223.78-12.05 222.48-12.95L222.48-12.95Q219.93-14.75 219.93-17.85 219.93-20.95 222.51-22.95 225.08-24.95 230.03-24.95L230.03-24.95Q233.13-24.95 235.28-23.63 237.43-22.3 237.43-20.3 237.43-18.3 235.73-17.4L235.73-17.4Q234.93-17 234.13-17L234.13-17 232.33-17.55Q232.63-19.1 232.63-20.38 232.63-21.65 231.83-22.68 231.03-23.7 229.43-23.7L229.43-23.7Q225.53-23.7 225.53-19L225.53-19Q225.53-16.85 227.18-15.8L227.18-15.8Q228.43-14.95 230.38-14.28 232.33-13.6 233.46-13.1 234.58-12.6 235.88-11.7L235.88-11.7Q238.48-10 238.48-6.68 238.48-3.35 235.73-1.4 232.98 0.55 228.48 0.55L228.48 0.55Q223.48 0.55 221.08-1.1L221.08-1.1Q219.68-2.1 219.68-3.55 219.68-5 220.66-5.9 221.63-6.8 223.38-6.85L223.38-6.85Q223.73-0.7 228.93-0.7Z" opacity="1" transform="matrix(1,0,0,1,0,0)" fill="#ffffff" class="undefined-text-0" data-fill-palette-color="primary" id="text-0"></path></svg></g></svg></g></svg></g></svg></g></svg></g></svg></g></svg></g><g mask="url(&quot;#a11f615b-38c3-421e-8196-fc4945fb8654&quot;)"><g transform="matrix(3.1435574774083364, 0, 0, 3.1435574774083364, 74.89667952747058, 1)"><svg xmlns="http://www.w3.org/2000/svg" xmlns:xlink="http://www.w3.org/1999/xlink" version="1.1" x="0" y="0" viewBox="0.0026691484054239822 0 78.16833085159456 78.00080060955393" enable-background="new 0 0 78.171 78.418" xml:space="preserve" width="78.16833085159456" height="78.00080060955393" class="icon-none" data-fill-palette-color="accent" id="none"><g fill="#636365" data-fill-palette-color="accent"><path fill="#ffffff" d="M50.268 0.099L49.494 0 29.904 19.589l11.118 11.117c-4.494 5.556-8.579 9.287-12.026 11.354C20.473 47.175 15.6 44.202 15.6 44.202L4.099 55.703l3.076 3.075 1.171-1.172c-0.264 3.266 0.847 6.622 3.345 9.121 2.499 2.498 5.855 3.608 9.121 3.345l-1.172 1.172 3.075 3.075 11.501-11.501c0 0-2.973-4.873 2.141-13.396 2.068-3.447 5.799-7.532 11.354-12.025l10.87 10.869 19.59-19.589-0.1-0.775C76.704 17.316 60.854 1.467 50.268 0.099zM73.478 28.877c-1.782-4.764-5.162-9.825-9.551-14.214-4.632-4.63-9.89-8.073-14.829-9.774l1.514-1.514C59.52 5.17 73 18.652 74.796 27.559L73.478 28.877zM59.538 42.816c-0.196-4.112-2.175-10.724-7.86-16.384-5.606-5.631-12.147-7.626-16.267-7.855L47.069 6.918c4.861 1.386 10.379 4.86 15.061 9.542 4.491 4.49 7.851 9.682 9.354 14.411L59.538 42.816zM42.932 28.123c0.021 0.018 0.044 0.036 0.066 0.054-0.002 0.003-0.005 0.005-0.007 0.008L42.932 28.123zM14.925 63.492c-2.734-2.732-2.734-7.165 0-9.898 1.129-1.13 2.55-1.784 4.019-1.98 2.088-0.278 4.276 0.377 5.88 1.98 1.604 1.604 2.259 3.793 1.981 5.88-0.196 1.47-0.852 2.89-1.981 4.019C22.091 66.227 17.659 66.227 14.925 63.492zM45.005 35.791L32.551 48.243c-0.573 0.574-1.503 0.574-2.076 0-0.573-0.572-0.573-1.501 0-2.075l12.453-12.453c0.203-0.203 0.451-0.331 0.712-0.39 0.475-0.107 0.994 0.019 1.365 0.39 0.37 0.37 0.497 0.889 0.388 1.364C45.334 35.34 45.207 35.587 45.005 35.791z" data-fill-palette-color="accent"></path><rect x="16.24" y="73.041" transform="matrix(-0.7071 -0.7071 0.7071 -0.7071 -20.932 141.5494)" fill="#ffffff" width="5.219" height="4.138" data-fill-palette-color="accent"></rect><rect x="0.699" y="57.499" transform="matrix(-0.7071 -0.7072 0.7072 -0.7071 -36.476 104.0264)" fill="#ffffff" width="5.219" height="4.139" data-fill-palette-color="accent"></rect><path fill="#ffffff" d="M55.73 15.774l-0.749-0.75c-0.496-0.496-1.301-0.496-1.797 0l-2.781 2.783c-0.497 0.496-0.497 1.3 0 1.797l0.645 0.646c-0.445 1.922 0.075 4.024 1.573 5.522 2.311 2.31 6.056 2.311 8.366 0 2.311-2.31 2.311-6.056 0-8.366C59.557 15.977 57.579 15.434 55.73 15.774zM58.627 23.414c-1.007 1.007-2.64 1.007-3.648 0-1.006-1.008-1.006-2.641 0-3.648 1.009-1.008 2.642-1.008 3.648 0C59.634 20.773 59.635 22.406 58.627 23.414z" data-fill-palette-color="accent"></path></g></svg></g></g><mask id="a11f615b-38c3-421e-8196-fc4945fb8654"><rect width="640" height="400" fill="white"></rect><g transform="matrix(1,0,0,1,39.55199999999999,88.67391736896197)"><svg viewBox="0 0 316.416 69.85216526207606" height="69.85216526207606" width="316.416"><g><svg viewBox="0 0 316.416 69.85216526207606" height="69.85216526207606" width="316.416"><g><svg viewBox="0 0 316.416 69.85216526207606" height="69.85216526207606" width="316.416"><g><svg viewBox="0 0 316.416 69.85216526207606" height="69.85216526207606" width="316.416"><g id="SvgjsG1581"><svg viewBox="0 0 316.416 69.85216526207606" height="69.85216526207606" width="316.416" id="SvgjsSvg1580"><g><svg viewBox="0 0 316.416 69.85216526207606" height="69.85216526207606" width="316.416"><g transform="matrix(1,0,0,1,0,0)"><svg width="316.416" viewBox="-1.75 -38.2 244.23 54.7" height="69.85216526207606" data-palette-color="#636365"><path d="M21.95-33.75L21.95-33.75 32.95-33.3 33.25-24.2 31.45-24.2 29.75-30.75Q26.3-31.9 23.1-31.9L23.1-31.9Q17.15-31.9 13.45-27.98 9.75-24.05 9.75-16.38 9.75-8.7 13.35-5.1 16.95-1.5 22.43-1.5 27.9-1.5 30.35-2.7L30.35-2.7 32.2-8.4 33.8-8.4 33.5-1.05Q27.25 0.3 22.58 0.3 17.9 0.3 14.6-0.48 11.3-1.25 8.4-3 5.5-4.75 3.88-8.05 2.25-11.35 2.25-15.95 2.25-20.55 3.93-24.08 5.6-27.6 8.45-29.65L8.45-29.65Q14.15-33.75 21.95-33.75ZM51.95-7.4L51.95-11.7Q46.15-11.7 44.65-8.65L44.65-8.65Q44-7.35 44-5.4L44-5.4Q44-2.05 46.3-1.5L46.3-1.5Q46.65-1.4 47.05-1.4L47.05-1.4Q48.65-1.4 50.25-3.08 51.85-4.75 51.95-7.4L51.95-7.4ZM43.95-16.6L43.95-16.6Q42.85-15.85 41.65-15.85 40.45-15.85 39.6-16.65 38.75-17.45 38.75-19.03 38.75-20.6 39.7-21.85 40.65-23.1 42.15-23.7L42.15-23.7Q45.1-24.95 47.75-24.95L47.75-24.95Q53.65-24.95 55.8-22.88 57.95-20.8 57.95-16.5L57.95-16.5 57.95-1.45 62.15-1.15 62.15-0.05 52.6 0.55 52.15-3.65Q49.8 0.6 44.05 0.6L44.05 0.6Q41.45 0.6 39.57-0.98 37.7-2.55 37.7-5.4L37.7-5.4Q37.75-9.2 41.5-11.13 45.25-13.05 51.95-13.05L51.95-13.05 51.95-17.35Q51.95-20.4 51.1-22.05 50.25-23.7 47.95-23.7 45.65-23.7 44.5-21.8L44.5-21.8Q43.75-20.55 43.75-19.15 43.75-17.75 43.95-16.6ZM72.85-18.5Q73.7-21.2 75.97-23.1 78.25-25 80.12-25 82-25 82.65-24.08 83.3-23.15 83.3-22.55L83.3-22.55Q83.3-20.5 81.8-19.6L81.8-19.6Q80.8-20.4 78.82-20.4 76.85-20.4 74.9-19.18 72.95-17.95 72.95-16.5L72.95-16.5 72.95-1.45 77.45-1.15 77.45 0 63.5 0 63.5-1.15 66.8-1.4 66.8-22.75 62.75-22.95 62.75-24.1 72.95-24.65 72.65-18.5 72.85-18.5ZM87.39-1.7L87.39-1.7Q85.29-3.05 85.29-5.15L85.29-5.15Q85.29-8.05 89.89-8.75L89.89-8.75Q90.69-4.1 93.29-2.3L93.29-2.3Q95.59-0.7 98.17-0.7 100.74-0.7 102.62-2.27 104.49-3.85 104.49-7.45L104.49-7.45Q104.49-10.15 102.57-11.73 100.64-13.3 97.69-14.5 94.74-15.7 93.69-16.18 92.64-16.65 91.02-17.6 89.39-18.55 88.59-19.4L88.59-19.4Q86.59-21.7 86.59-24.7L86.59-24.7Q86.59-29.4 90.09-31.8 93.59-34.2 99.84-34.2L99.84-34.2Q103.39-34.2 108.09-33.4L108.09-33.4 108.09-26 106.44-26 104.44-31.9Q101.94-32.7 99.37-32.7 96.79-32.7 94.89-31.08 92.99-29.45 92.99-26.25L92.99-26.25Q92.99-22.6 96.29-20.8L96.29-20.8Q97.94-19.95 100.19-19.1 102.44-18.25 103.44-17.82 104.44-17.4 106.09-16.48 107.74-15.55 108.54-14.65 109.34-13.75 109.99-12.28 110.64-10.8 110.64-9.05L110.64-9.05Q110.64-4.8 107.04-2.1 103.44 0.6 97.22 0.6 90.99 0.6 87.39-1.7ZM131.24-24.95L131.24-24.95Q135.64-24.95 138.62-22.08 141.59-19.2 141.59-12.98 141.59-6.75 138.12-3.08 134.64 0.6 128.14 0.6L128.14 0.6Q125.24 0.6 123.19-0.75L123.19-0.75 123.19 11.05 126.64 11.35 126.64 12.5 113.74 12.5 113.74 11.35 116.79 11.05 116.79-22.65 112.44-22.9 112.44-24.05 123.04-24.7 122.89-20.5Q125.64-24.95 131.24-24.95ZM123.19-17.25L123.19-17.25 123.19-2.55Q125.19-0.9 127.74-0.9 130.29-0.9 131.64-2.02 132.99-3.15 133.59-5.2L133.59-5.2Q134.64-8.55 134.64-13.9L134.64-13.9Q134.64-23.4 129.74-23.4L129.74-23.4Q127.14-23.4 125.17-21.3 123.19-19.2 123.19-17.25ZM159.59-7.4L159.59-11.7Q153.79-11.7 152.29-8.65L152.29-8.65Q151.64-7.35 151.64-5.4L151.64-5.4Q151.64-2.05 153.94-1.5L153.94-1.5Q154.29-1.4 154.69-1.4L154.69-1.4Q156.29-1.4 157.89-3.08 159.49-4.75 159.59-7.4L159.59-7.4ZM151.59-16.6L151.59-16.6Q150.49-15.85 149.29-15.85 148.09-15.85 147.24-16.65 146.39-17.45 146.39-19.03 146.39-20.6 147.34-21.85 148.29-23.1 149.79-23.7L149.79-23.7Q152.74-24.95 155.39-24.95L155.39-24.95Q161.29-24.95 163.44-22.88 165.59-20.8 165.59-16.5L165.59-16.5 165.59-1.45 169.79-1.15 169.79-0.05 160.24 0.55 159.79-3.65Q157.44 0.6 151.69 0.6L151.69 0.6Q149.09 0.6 147.21-0.98 145.34-2.55 145.34-5.4L145.34-5.4Q145.39-9.2 149.14-11.13 152.89-13.05 159.59-13.05L159.59-13.05 159.59-17.35Q159.59-20.4 158.74-22.05 157.89-23.7 155.59-23.7 153.29-23.7 152.14-21.8L152.14-21.8Q151.39-20.55 151.39-19.15 151.39-17.75 151.59-16.6ZM180.49-18.5Q181.34-21.2 183.61-23.1 185.89-25 187.76-25 189.64-25 190.29-24.08 190.94-23.15 190.94-22.55L190.94-22.55Q190.94-20.5 189.44-19.6L189.44-19.6Q188.44-20.4 186.46-20.4 184.49-20.4 182.54-19.18 180.59-17.95 180.59-16.5L180.59-16.5 180.59-1.45 185.09-1.15 185.09 0 171.14 0 171.14-1.15 174.44-1.4 174.44-22.75 170.39-22.95 170.39-24.1 180.59-24.65 180.29-18.5 180.49-18.5ZM209.53-17.45L209.53-17.45Q209.53-23.55 205.28-23.55L205.28-23.55Q200.83-23.55 199.88-15.75L199.88-15.75 209.43-15.75Q209.53-16.75 209.53-17.45ZM204.83 0.55L204.83 0.55Q199.48 0.55 196.16-2.95 192.83-6.45 192.83-12.2 192.83-17.95 196.31-21.45 199.78-24.95 205.13-24.95 210.48-24.95 213.13-22.68 215.78-20.4 215.78-16.35L215.78-16.35Q215.78-15.2 215.58-13.95L215.58-13.95 199.73-13.95 199.73-12.2Q199.73-6.6 201.13-3.73 202.53-0.85 205.36-0.85 208.18-0.85 210.51-2.02 212.83-3.2 214.13-5.35L214.13-5.35Q215.23-5 215.23-4.3L215.23-4.3Q215.23-3.05 212.88-1.4L212.88-1.4Q211.73-0.6 209.61-0.03 207.48 0.55 204.83 0.55ZM228.93-0.7L228.93-0.7Q230.68-0.7 231.83-1.83 232.98-2.95 232.98-5.5L232.98-5.5Q232.98-7.55 231.28-8.6L231.28-8.6Q229.98-9.4 227.96-10.18 225.93-10.95 224.86-11.5 223.78-12.05 222.48-12.95L222.48-12.95Q219.93-14.75 219.93-17.85 219.93-20.95 222.51-22.95 225.08-24.95 230.03-24.95L230.03-24.95Q233.13-24.95 235.28-23.63 237.43-22.3 237.43-20.3 237.43-18.3 235.73-17.4L235.73-17.4Q234.93-17 234.13-17L234.13-17 232.33-17.55Q232.63-19.1 232.63-20.38 232.63-21.65 231.83-22.68 231.03-23.7 229.43-23.7L229.43-23.7Q225.53-23.7 225.53-19L225.53-19Q225.53-16.85 227.18-15.8L227.18-15.8Q228.43-14.95 230.38-14.28 232.33-13.6 233.46-13.1 234.58-12.6 235.88-11.7L235.88-11.7Q238.48-10 238.48-6.68 238.48-3.35 235.73-1.4 232.98 0.55 228.48 0.55L228.48 0.55Q223.48 0.55 221.08-1.1L221.08-1.1Q219.68-2.1 219.68-3.55 219.68-5 220.66-5.9 221.63-6.8 223.38-6.85L223.38-6.85Q223.73-0.7 228.93-0.7Z" opacity="1" transform="matrix(1,0,0,1,0,0)" fill="#ffffff" class="undefined-text-0" data-fill-palette-color="primary" id="SvgjsPath1579" stroke-width="7" stroke="black" stroke-linejoin="round"></path></svg></g></svg></g></svg></g></svg></g></svg></g></svg></g></svg></g></mask></svg></g><defs></defs></svg><rect width="395.52" height="247.2" fill="none" stroke="none" visibility="hidden"></rect></g></svg></g></svg>